<?xml version="1.0" encoding="UTF-8"?>
<!DOCTYPE svg PUBLIC "-//W3C//DTD SVG 1.1//EN" "http://www.w3.org/Graphics/SVG/1.1/DTD/svg11.dtd">
<svg xmlns="http://www.w3.org/2000/svg" version="1.1" width="818px" height="818px" style="shape-rendering:geometricPrecision; text-rendering:geometricPrecision; image-rendering:optimizeQuality; fill-rule:evenodd; clip-rule:evenodd" xmlns:xlink="http://www.w3.org/1999/xlink">
<g><path style="opacity:0.989" fill="#c4914f" d="M 106.5,-0.5 C 108.167,-0.5 109.833,-0.5 111.5,-0.5C 210.465,98.9654 309.632,198.299 409,297.5C 508.368,198.299 607.535,98.9654 706.5,-0.5C 707.5,-0.5 708.5,-0.5 709.5,-0.5C 745.167,35.8333 781.167,71.8333 817.5,107.5C 817.5,109.167 817.5,110.833 817.5,112.5C 718.368,211.132 619.368,309.965 520.5,409C 619.368,508.035 718.368,606.868 817.5,705.5C 817.5,706.5 817.5,707.5 817.5,708.5C 780.833,744.5 744.5,780.833 708.5,817.5C 707.5,817.5 706.5,817.5 705.5,817.5C 606.868,718.368 508.035,619.368 409,520.5C 309.965,619.368 211.132,718.368 112.5,817.5C 110.833,817.5 109.167,817.5 107.5,817.5C 71.8333,781.167 35.8333,745.167 -0.5,709.5C -0.5,708.5 -0.5,707.5 -0.5,706.5C 98.9654,607.535 198.299,508.368 297.5,409C 198.299,309.632 98.9654,210.465 -0.5,111.5C -0.5,109.833 -0.5,108.167 -0.5,106.5C 35.5,71.1667 71.1667,35.5 106.5,-0.5 Z"/></g>
</svg>
