<?xml version="1.0" encoding="UTF-8"?>
<!DOCTYPE svg PUBLIC "-//W3C//DTD SVG 1.1//EN" "http://www.w3.org/Graphics/SVG/1.1/DTD/svg11.dtd">
<svg xmlns="http://www.w3.org/2000/svg" version="1.1" width="1004px" height="956px" style="shape-rendering:geometricPrecision; text-rendering:geometricPrecision; image-rendering:optimizeQuality; fill-rule:evenodd; clip-rule:evenodd" xmlns:xlink="http://www.w3.org/1999/xlink">
<g><path style="opacity:0.993" fill="#c4914f" d="M 500.5,-0.5 C 501.167,-0.5 501.833,-0.5 502.5,-0.5C 543.869,117.773 585.535,235.94 627.5,354C 752.835,357.645 878.168,361.145 1003.5,364.5C 1003.5,364.833 1003.5,365.167 1003.5,365.5C 903.921,441.777 804.588,518.277 705.5,595C 741.078,715.23 776.744,835.396 812.5,955.5C 811.5,955.5 810.5,955.5 809.5,955.5C 707.248,884.029 604.581,813.029 501.5,742.5C 398.419,813.029 295.752,884.029 193.5,955.5C 192.5,955.5 191.5,955.5 190.5,955.5C 226.256,835.396 261.922,715.23 297.5,595C 198.412,518.277 99.0787,441.777 -0.5,365.5C -0.5,365.167 -0.5,364.833 -0.5,364.5C 124.832,361.145 250.165,357.645 375.5,354C 417.465,235.94 459.131,117.773 500.5,-0.5 Z"/></g>
</svg>
