<?xml version="1.0" encoding="UTF-8"?>
<!DOCTYPE svg PUBLIC "-//W3C//DTD SVG 1.1//EN" "http://www.w3.org/Graphics/SVG/1.1/DTD/svg11.dtd">
<svg xmlns="http://www.w3.org/2000/svg" version="1.1" width="200px" height="200px" style="shape-rendering:geometricPrecision; text-rendering:geometricPrecision; image-rendering:optimizeQuality; fill-rule:evenodd; clip-rule:evenodd" xmlns:xlink="http://www.w3.org/1999/xlink">
<g><path style="opacity:0.96" fill="#c4914f" d="M 199.5,27.5 C 199.5,32.8333 199.5,38.1667 199.5,43.5C 192.911,62.3093 179.578,70.1426 159.5,67C 152.488,65.4129 146.655,61.9129 142,56.5C 116.243,68.9616 90.4095,81.295 64.5,93.5C 63.1667,97.5 63.1667,101.5 64.5,105.5C 90.4095,117.705 116.243,130.038 142,142.5C 153.266,131.254 166.433,128.42 181.5,134C 190.455,138.772 196.455,145.939 199.5,155.5C 199.5,160.833 199.5,166.167 199.5,171.5C 192.911,190.309 179.578,198.143 159.5,195C 141.745,189.184 133.411,176.851 134.5,158C 108.727,145.697 82.8937,133.53 57,121.5C 45.3837,131.765 32.217,134.265 17.5,129C 8.5451,124.228 2.5451,117.061 -0.5,107.5C -0.5,102.167 -0.5,96.8333 -0.5,91.5C 6.08892,72.6907 19.4223,64.8574 39.5,68C 46.1653,69.7473 51.9986,72.914 57,77.5C 82.8937,65.4699 108.727,53.3032 134.5,41C 134.89,13.9425 148.557,1.60912 175.5,4C 188.023,7.35787 196.023,15.1912 199.5,27.5 Z"/></g>
</svg>
